<?xml version="1.0" encoding="UTF-8"?>
<svg version="1.1" viewBox="0 0 2048 1624" width="1280" height="1280" xmlns="http://www.w3.org/2000/svg">
<path transform="translate(1138,424)" d="m0 0 8 6 146 146 8 7 3 3v2h2v2h2l7 8 7 9 6 13 2 6 1 7v14l-4 16-8 14-12 13-170 170-5 6h-2v2l-8 7-55 55-10 7-10 5-11 3-6 1h-14l-13-3-14-7-11-9-210-210v-2l-4-2-3-3v-2h-2l-7-8-22-22-8-14-4-12-1-15 2-13 4-11 7-11 9-10 160-160h2v-2l5-4h2l1 10v24l-7 9-149 149-5 10-2 9 1 11 4 9 6 8 11 12 117 117 7 8 28 28 3 2v2l3 1v2l4 2 71 71 9 5 5 2 11 1 10-2 10-6 3-3h2l2-4 8-7 55-55 4-5 4-4h2l2-4 8-7 156-156 6-9 3-8v-16l-3-9-7-9-139-139-3-2v-2l-3-1-7-8z" fill="#5F2897"/>
<path transform="translate(1141,590)" d="m0 0 9 2 29 11 9 8 3 7v20l-5 8-7 6h-4l-1-3-2-23-2-11h-3l2 3v110l-3 16-6 16-9 15-11 13-9 9-14 9-15 7-15 4-12 2-15 1-3 1-7 18-5 6h-3l-3-14-5-5-3-1h-16l-6 3-4 6-1 9-5-1-8-16-3-5-21-2-21-5-18-8-14-10-12-12-10-14-8-15-5-16-2-12-1-12v-61l1-35 3-5 4-3-6 3-3 5-2 15-1 17-4 1-7-4-5-8-1-3v-20l5-9 10-6 30-11 5 1 1 2 1 17 12 3v15l-1 2-3 1h-8l-1 19-4 2-13 1 7 2 1 67 3 15 6 16 6 10 8 10 13 11 16 8 13 4 7 1h108l14-3 18-8 12-9 10-10 9-14 5-12 3-14 1-9 1-63 2-1-11-2-2-5v-16h-12l-1-1v-19h13v-13z" fill="#5F2998"/>
<path transform="translate(926,669)" d="m0 0 36 4 49 2h31l45-2 25-3 11-1 4 3v8l-6 3-31 6-28 5h28l17-2h7v35l-4 13-7 11-7 8-11 7-14 5-7 1h-76l-13-2-13-5-9-7-7-7-8-14-3-11-1-25 1-9 20 1h36v-2h-11l-45-6-11-3-3-4 1-5zm95 36-5 3-3 5 1 7 5 5 2 1h8l6-5 1-6-3-6-5-4z" fill="#5F2897"/>
<path transform="translate(931,458)" d="m0 0 11 1 6 3 1 3 5-1 4-3h7l7 2h9l1 4-1 4 5 3 3-4v-5l3-2h7l4 5 2 3h3l4-8h6l1 5-5 6 1 4 3 3-1 5-2 2v7l3 4-4 8 1 6h2l1 4-4 6 4 10-4 8v2h14l1-6 3-5-4-6 1-6 3-5-4-6v-5l4-5-4-6v-5l3-4-1-5-2-2v-6l5-7 7-1 7 3 1 3h4l2-4 3-2h9l5 3 4-1 8-4 6 1 3 3h4l2-4 10-3h5l1 1 1 78 5 2 1 2v20l-6 4-24 3-42 2h-50l-44-2-21-2-7-2-2-2-1-9 1-14 5-3h2l-1-13zm30 8-2 1v5l2 2h5l2-5-4-3zm-22 1-1 1v5l4 2 3-2-1-5zm164 0-2 1v5l6 1 1-1v-5zm-22 1-2 1 1 5 1 1h5l1-1v-5zm-23 2-1 5 3 2 4-1 1-5zm-65 1-2 3v5l2 2 5-1 3-4-2-4zm43 0v6l6 1 1-1v-5zm-65 2-2 2 1 6 1 1h6l2-3-1-4-2-2zm-21 2-2 2 1 5h6l1-5-2-2zm142 1-2 4 2 3h5l2-4-2-3zm-21 1-3 3 2 4 3 1 4-3-1-4zm-22 1-2 1-1 4 3 3 5-1 1-5-3-2zm-66 2-3 3 1 6 2 2 5-1 3-3-1-4-4-3zm21 0-2 5 2 4h5l2-3-1-5-1-1zm-43 2-2 1-1 4 3 3 6-1 1-4-4-3zm-23 2-1 3 2 4h5l1-5-2-2zm165 0-3 2 2 4 5 1 1-1v-5zm-22 1-2 1 1 5 4 1 4-4-2-3zm-23 1-1 5 2 2 5-1 1-4-2-2zm-20 0-2 1v5l2 2 5-1 1-3-2-3zm-45 2-3 3 1 5 2 2 6-1 2-5-3-4zm-22 1-2 2 1 6 3 2 4-1 3-3-1-4-3-2zm-21 2-2 2 1 5 5 1 3-3-3-5zm141 2-1 3 2 3h5l2-4-2-2zm-42 1-2 2v5l1 1h5l2-2-1-5zm21 0-2 4 2 3 5-1 2-4-2-2zm-87 2-3 4 1 5 2 2 5-1 3-3-1-5-4-2zm23-1-4 4 1 4 3 3 4-2 1-1v-5zm-45 3-3 3 1 5 1 1 7-1 1-5-4-3zm-23 2-1 5 1 2 4 1 4-4-3-4zm164 0-1 5 6 2 1-1v-5l-1-1zm-22 1-1 5 5 2 3-2-1-5zm-21 1-3 3 2 4 4 1 3-2-1-5zm-65 1-4 4 1 5 2 2h5l3-4-1-4-4-3zm44 0-2 1v5l1 1h5l2-3-4-4zm-65 2-4 3 1 5 2 2 5-1 2-2-1-5zm-23 2-2 1v5l2 2h5l2-5-3-3zm142 2-2 2 1 4 5 1 3-4-2-3zm-21 1-3 3 2 4h5l2-4-1-2zm-24 1-1 5 2 2h5l2-2-1-4-1-1zm-64 1-3 3 1 6 5 2 5-5-1-4-4-2zm23 0-4 3 1 6 5 1 3-3-1-5zm-44 2-4 3 1 5 4 2 5-3-1-5zm141 2-3 3 2 4 3 1 3-2v-5zm-165 1v7l4 1 4-3-2-5zm142 1-1 4 3 3 5-2-1-5zm-42 1-2 1v5l5 2 2-2-1-5zm22-1-3 2 1 5 7-1-1-5zm-88 3-4 4 2 4 5 2 4-4-1-4-3-2zm21 0-3 3 2 4 1 1h5l2-2v-5l-1-1zm-44 3-2 5 4 4 5-2 1-4-2-3zm143 1-2 2 1 4 1 1h5l2-4-4-3zm-22 1-2 2 1 4 6 1 2-2-1-4zm-21 1-3 3 1 4 5 1 3-2-1-5zm-66 2-3 4 2 5 5 1 3-3-1-5-3-2zm23-1-4 4 2 4 4 2 3-3-1-5zm-45 3-4 5 1 3 2 1h6l2-2-1-5-2-2zm-23 2-1 5 7 2 2-1-1-5zm143 0-3 4 2 4h6l1-5-3-3zm23-1-4 3 1 4h7l1-5zm-45 2-3 4 2 4h6l2-1-1-5-2-2zm-22 1-2 3 1 5h7l1-4-5-4zm-65 3-2 4 6 2 2-1-2-4zm21 0-3 4 1 1h9l-2-4z" fill="#602D9A"/>
<path transform="translate(934,573)" d="m0 0 19 2 32 2h75l31-2 21-2 1 1v87l-8 2-24 2-42 2h-34l-52-3-19-2-1-1v-87zm87 15-9 2-9 5-8 8-6 12v14l4 10 7 9 11 6 4 1h17l12-6 7-7 5-12 1-13-4-10-6-9-10-7-5-2zm-36 30-1 1v13l3 9 4 7 8 8 13 6 11 2 12-2 12-6 7-6 6-10 1-3v-10l-2-7h-1l-1 12-5 10-7 8-12 6-10 2-9-1-16-8-2-4-6-9-3-11-1-7z" fill="#5F2A98"/>
<path transform="translate(1138,424)" d="m0 0 8 6 146 146 8 7 3 3v2h2v2h2l7 8 7 9 6 13 2 6 1 7v14l-4 16-8 14-12 13-47 47-2-1-3 3-5 2-2-4h-7l-1-6v-6l3-6h2l1-4 2-1 2-4 5-4 1-3h2l1-5 33-33 6-9 3-8v-16l-3-9-7-9-139-139-3-2v-2l-3-1-7-8z" fill="#7071B9"/>
<path transform="translate(1295,964)" d="m0 0 3 1 9 81 3 26v6l-12 6-13 5-5-2-13-17-14-18-9-11 1 18 3 32v12l-13 6-11 4-4-1-7-8-15-20-10-13-16-21-12-16-8-10v-2l23-10 4 1 13 17 14 18 8 11 5 5-7-57v-9l9-4 15-6 4 2 12 17 16 21 9 12 1 1-4-37-2-20v-10l21-9z" fill="#21E0C5"/>
<path transform="translate(905,426)" d="m0 0h2l1 10v24l-7 9-149 149-5 10-2 9 1 11 4 9 6 8 11 12 22 22 1 5 3 6-7 5v8l-4 3-5-2v-2l-4-1v-2l-4-2-6-4-3-3v-2h-2l-7-8-22-22-8-14-4-12-1-15 2-13 4-11 7-11 9-10 160-160h2v-2z" fill="#22DFC5"/>
<path transform="translate(479,571)" d="m0 0h3l5 18 3 11-1 5-13 13-2 3h-2l-2 4-36 36-1 3 50-13 13-3h6l6 22v4l-38 10-39 10-26 7h-5l-4-15-4-17 7-8 51-51 1-2-64 16-6 1-3-9-4-14 1-4 54-14 43-11z" fill="#21E0C5"/>
<path transform="translate(687,921)" d="m0 0h5l15 10 18 11 15 10 10 9 6 9 1 4v12l-5 12-7 11-9 8-9 4-11 1h-2l-2 43-5-1-9-6-11-7-1-1v-12l1-29v-2l-5-2-8-5-3-1-2 4-10 16-6 8-5-1-14-9-5-3 4-8 15-23 28-44 10-16zm12 34-14 22 1 3 21 13 5 3 7-1 7-8 3-7-1-7-7-6-18-11z" fill="#21E0C5"/>
<path transform="translate(1487,790)" d="m0 0h10l10 3 10 6 5 4 8 10 4 11v12l42 5-1 4-14 18-2 2-14-1-27-3-8 10-2 5 11 9 14 10 1 4-10 14-4 6-5-1-13-10-16-12-21-16-19-14-16-12 1-4 13-17 14-19 10-13 7-6 8-4zm-1 27-10 11-11 15 2 4 18 13 3 1 8-9 11-16-1-8-6-7-8-4z" fill="#21E0C5"/>
<path transform="translate(596,828)" d="m0 0 16 16 7 8 14 14 7 8 13 13 5 6-2 4-12 12-5-1-8-8-7-8-9-9-7-8-9-9-5 3-9 9 3 5 12 12 7 8 7 7 1 4-13 13-4 1-17-17-7-8-7-7-8 6-6 6 2 4 7 7 7 8 11 11 7 8 7 7-2 4-13 13-4-2-15-15-7-8-9-9-7-8-10-10-7-8-4-4 2-5 12-11 15-14 8-8 8-7 11-11 8-7z" fill="#21E0C5"/>
<path transform="translate(1401,882)" d="m0 0 5 5 9 11-1 4-32 26-9 7-5 5 11 13 2 1 13-10 13-11 9-7 4 2 4 6 7 8-1 4-14 11-17 14-3 3 10 13 3 1 13-10 17-14 16-13 4 1 12 15-1 3-10 8-32 26-22 18-3 3-4-1-14-17-8-10-9-11-11-14-18-22-8-10 6-7 9-7 16-13 11-9 16-13z" fill="#21E0C5"/>
<path transform="translate(1106,1026)" d="m0 0 4 1 1 21-2 1-43 4-17 1 1 21 38-4h9l1 5 1 18-15 2-31 2 1 19h14l26-2h22l1 4v17l-1 1-22 2-52 4-14 1-2-5-7-91v-14l1-1 34-3z" fill="#21E0C5"/>
<path transform="translate(1670,600)" d="m0 0 2 1-2 10-4 14-2 2-15 1-4 1-5 16-6 24v2l4 2 11 8 1 1-1 9-5 18-4-2-16-11-17-12-14-10-36-26-10-7 1-8 5-19 2-2 104-11zm-58 32-21 2-5 1v2l19 13 6 4 3-1 4-17v-4z" fill="#21E0C5"/>
<path transform="translate(1e3 335)" d="m0 0h49l15 1 2 2-5 6h-2v3l11-9 1-1h10l4 1 18 2 6 4 3 4 2 10 6 2 1 5-2 5-6 2-23 3-28 2h-43l-55-2-34-3-7-3-1-7 3-4 6-1 1-10 4-5 4-2 20-2h15l7-2zm-42 5v3l9 7h5l1-4-3-3-5-3zm125 0-3 2v4l4-2zm-77 1 2 2v-2zm20 0m21-1-2 2h3zm-67 2v2l8 2 5 4 2-5-6-2-1-1zm-38 1-4 3v3l9 1 1-1v-6zm73 0-1 5h4l-1-5zm21 0 1 4h3l1-4zm56 3-3 3 1 4 4 1 3-2v-5zm-21 1-4 3 1 4 6 1 2-2-1-5zm-45 2-2 1v6l4 2 4-3-1-5zm21 0-2 2 1 5 5 1 3-3-1-5zm-44 1-2 3 1 5 5 1 4-4-2-5zm-22 1-2 2v6l2 2 6-1 2-5-3-4zm-23 1-1 1v6l3 2 7-1v-5l-3-3zm-21 1-1 1v5h8v-4l-2-2zm144 1-4 4v2l2 1h6l1-5-2-2zm21 0-2 2 1 4 5-1v-4zm-42 1-5 4 1 3h7l1-5zm-23 2-3 2v4h7l1-5zm-44 1-2 5 1 1h5v-4zm22 0-3 3 1 3 7-1-2-5zm-42 2-1 3h2z" fill="#602D99"/>
<path transform="translate(807,991)" d="m0 0 9 1 17 5 2 3 4 73 1 3 8-9 10-13 11-14 10-13 9-11 8 1 18 5v4l-8 10-13 17-12 15-13 17-12 15-10 13-3 4-9-2-19-6-1-1-2-25-5-88z" fill="#21E0C5"/>
<path transform="translate(905,426)" d="m0 0h2l1 10v24l-7 9-131 131v-3l7-8 4-7h2l2-5-2-19-1-2-5 1-5 2 6-7 120-120h2v-2z" fill="#5F2A98"/>
<path transform="translate(522,712)" d="m0 0 4 1 13 23 16 29 13 23 3 6-2 4-14 8-5-1-14-24-1-2-6 2-29 16-23 13-18 10-5-5-9-16 1-4 17-10 27-15 28-16h2l-8-16-7-13v-3z" fill="#21E0C5"/>
<path transform="translate(1110,382)" d="m0 0 4 1v65l-6 2-7 1-5-3-5 1-4 3-7 1-4-2v-2l-6 1-4 3-7 1-6-3-6 1-5 2-10-1-4-4v-7l3-4-2-5-1-1v-6l3-4-1-4-2-2 1-7 3-5-4-7 2-7 3-2 8-1 8 3 5-1 3-2 8-1 5 2h6l7-3h6l3 3 4-1 4-3zm-28 8-3 2 1 5 5 1 3-5-3-3zm20 0-2 3 3 4 5-1 1-4-1-2zm-65 2-2 4 2 4 5-1 2-4-1-2zm21 0-1 5 2 2 5-1 1-5-1-1zm13 6-3 5 2 3h5l2-2-1-5zm22 0-3 3 2 4 5-1 2-4-2-2zm-45 2-2 5 3 3 5-1 1-5-2-2zm56 5-3 2 1 5h5l1-1v-6zm-45 2-2 1v5l2 2 5-1 1-5zm22 0-2 1 1 5 5 1 2-2-1-5zm-43 1-2 1v6l5 1 3-2-1-4zm55 6-2 1v5l1 1h5l2-4-3-3zm-22 1-2 1v5l4 2 3-1 1-5zm-22 1-2 1-1 4 2 3 6-1 1-5-3-2zm54 6-3 2 2 5h5l1-1v-5zm-22 1-2 2 1 4 1 1h5l2-4-3-3zm-23 1-1 5 2 2 6-1v-5l-1-1zm-19 1-3 2 1 5 3 1 3-2-1-5zm53 6-1 5 1 1h5l1-5zm-22 1-2 2 1 4 5 1 3-3-2-4zm-20 1-3 2 1 5h5l2-2-1-4zm53 5-2 2 1 4 4 1 2-2-1-4zm-21 1-3 2 1 4 5 1 2-1-1-5zm-44 2-2 1v5l1 1h5l1-5-2-2zm21 0-1 5 1 1h5l1-5-1-1z" fill="#612F9A"/>
<path transform="translate(1141,590)" d="m0 0 9 2 29 11 9 8 3 7v20l-5 8-7 6h-4l-1-3-2-23-2-11h-3l2 3v57l-1 6v22l-1 21-2 8-2 12-4 8-4 1-8-3 3-8h3l-1-7 1-9v-12l1-4-1-26v-27l-1-2-11-2-2-5v-16h-12l-1-1v-19h13v-13z" fill="#7071B9"/>
<path transform="translate(900,591)" d="m0 0 5 1 1 2 1 17 12 3v15l-1 2-3 1h-8l-1 19-4 2-13 1 3 7v6l-1 5-1 35 1 17 1 1v14l2 11-4 8-3-1-1-4-2 2-5-16-2-12-1-12v-61l1-35 3-5 4-3-6 3-3 5-2 15-1 17-4 1-7-4-5-8-1-3v-20l5-9 10-6z" fill="#7070B9"/>
<path transform="translate(1138,424)" d="m0 0 8 6 128 128-2 1-6-5v-2l-4-2v-2l-4-1v-2h-2l-1-4-4-1v-2h-3l-3-3v-2h-2v-2h-2v-2l-4-1v9l-4-1-1 3h-2v2l-4-1 1 1 1 7-5-1-72-72-3-2v-2l-3-1-7-8z" fill="#5F2897"/>
<path transform="translate(933,381)" d="m0 0 10 2 7 6h4l3-4 11 1 10 1 5 8h3l5-8h7l7 6 3 1 2-4 3-3h3l1 4-3 3 1 7 2 2-1 5-2 4 1 4 3 4-2 5-2 3 1 5 3 3-1 5-2 2 1 6 1 5-4 1-6-3-8 1-1-3 1-4-1-2h-5l-1 7-3 1h-9l-2-2-2-5-5 1-4 6h-8l-6-5-4 1-3 2-10-1-5-3v-43l1-21zm27 7-2 5 4 4 4-1 2-3-1-4-1-1zm-22 1v8h6l2-4-5-4zm55 4-4 4 2 5 2 2 5-1 3-4-1-4-3-2zm-21 1-3 4 1 6 6 1 3-4-1-5-3-2zm-23 3-1 1v5l3 2 5-1 1-4-2-3zm34 4-3 5 2 6 4 1 5-4 1-4-6-4zm22 0-3 4 1 5 5 2 4-6-3-5zm-45 3-2 5 4 4 4-1 2-2-1-4-3-2zm-22 2-1 3 2 4h5l2-4-3-3zm56 3-4 4 1 5 2 2h5l3-6-5-5zm-23 2-2 2 1 5 3 2 4-1 3-3-2-4zm-22 2-1 5 3 3 4-1 1-5-2-2zm33 5-1 1v7l2 2h5l3-3-1-5-3-2zm22 0-2 2v5l3 2 5-1 1-1v-5l-2-2zm-43 2-3 5 3 4 5-1 2-2-1-4-3-2zm-23 3v5l2 2 5-1v-5l-1-1zm55 3-3 4 1 4 2 1h6l1-7-2-2zm-23 1-1 6 3 3 5-1 3-4-4-4zm-21 3-1 5 1 2h6l1-5-1-2zm56 3-3 4 1 4 2 2 5-1 1-5-4-4zm-22 1-3 4 1 5 3 2 5-1 1-6-5-4zm-22 3-2 2 1 5 1 1h5l2-5-3-3zm-22 2-1 4 2 2 4-1v-4z" fill="#61329C"/>
<path transform="translate(1110,573)" d="m0 0 3 1v87l-8 2-18 1-10-1-3-5-2-15-2-6-1-12-2-12h2v-5h2l1-17 4-8h2l1-3 5-2 13-1 3-1 1-2z" fill="#7070B9"/>
<path transform="translate(954,1028)" d="m0 0h14l13 2v9l-9 87-2 14h-11l-16-2-1-1 1-14 10-94z" fill="#21E0C5"/>
<path transform="translate(468,505)" d="m0 0h10l1 1 1 13v13l-2 1-92 5h-17l-1-1v-25l1-1 64-4z" fill="#21E0C5"/>
<path transform="translate(1569,505)" d="m0 0 26 1 76 5 8 1v14l-1 12h-23l-75-4-13-1-1-5 2-22z" fill="#21E1C6"/>
<path transform="translate(1108,458)" d="m0 0h5l1 1 1 78 5 2 1 2v20l-6 4-24 3h-14l-2-3v-6l1-5-2-5 2-5 7-1-2-2 5-1 2-3-1-4-4-2-1-4 4-3 3-7h7l4-2v7l1 2 4-1 2-1v-5l-7-3-2-3h2l-4-4h-6l-3 9-6-2v-3l7-4v-7h8l2-3h2l-2-5-6-1-3 4-1 4h-10v-6l6-1 3-3h2l-1-6-8-1-2-4 9-3v-9h-3v-3l7 1 5 1 2-4zm-5 9-2 1v5l6 1 1-1v-5zm-11 9-2 4 2 3h5l2-4-2-3zm11 8-3 2 2 4 5 1 1-1v-5zm-1 16-1 5 6 2 1-1v-5l-1-1zm-10 25-2 2 1 4 1 1h5l2-4-4-3zm12 7-4 3 1 4h7l1-5z" fill="#6F6CB7"/>
<path transform="translate(1107,692)" d="m0 0h7v35l-4 13-7 11-6 7-5 1-3 2h-3l-1-6-5-2-7-7-3-7v-15l-1-5 1-9 2-5 1-2 1-5h4v-2l-4-1 25-2z" fill="#706FB8"/>
<path transform="translate(934,573)" d="m0 0 19 2 11 1v1l-5 1 3 3 1 6v8l-2 15-1 35-1 15-1 3 2 1-18-1-8-1-1-1v-87z" fill="#7070B9"/>
<path transform="translate(931,458)" d="m0 0 11 1 5 2v3 2l7 2v5l-6 2 1 6 6 1 1 4-2 5-5 2 1 5h6v-2h2v4h-2v6h-7l1 2h-2l2 6 4 2 1 1 1 2-2 5-5 1-1 4 3 3 5 1 2 1v4l2 2v4l2 10-3 9h-2v2l-3 2h-10l-15-2-4-3-1-9 1-14 5-3h2l-1-13zm8 9-1 1v5l4 2 3-2-1-5zm-1 17-1 3 2 4h5l1-5-2-2zm0 16-1 5 1 2 4 1 4-4-3-4zm0 17v7l4 1 4-3-2-5zm0 16-1 5 7 2 2-1-1-5z" fill="#6F72B9"/>
<path transform="translate(1183,1295)" d="m0 0h37l8 3 5 6 2 4 1 11-2 8-4 6-5 4 2 6 8 15v3h-9l-5-4-10-18-16-1v22l-1 1h-9l-2-1zm12 11-1 20 1 1h25l3-1 1-3v-12l-2-4-15-1z" fill="#6D77BA"/>
<path transform="translate(996,1295)" d="m0 0h18l11 3 8 7 4 8 1 5v20l-4 11-6 7-10 4-7 1h-13l-10-2-8-5-4-7-3-9v-21l4-11 7-7 8-3zm-1 12-7 3-3 6-1 5v14l2 8 5 5 5 2h18l7-3 4-5 1-4v-20l-3-7-7-4z" fill="#6E75BA"/>
<path transform="translate(1300,1295)" d="m0 0h17l10 3 6 7 2 4v6l-1 1h-9l-2-2-2-6h-26l-2 3v11l5 1 26 1 8 4 5 8v10l-4 8-5 4-6 2-9 1h-11l-12-2-7-6-2-5v-6l3-2h6l2 2 2 6 2 1h24l4-1 1-10-1-1-28-2-8-3-6-7-1-3v-14l4-6 5-4z" fill="#6E74B9"/>
<path transform="translate(643,1295)" d="m0 0h17l9 3 5 4 4 10v3l-2 1h-8l-3-3-2-5h-27l-1 10 2 4 4 1 26 1 6 3 5 6 2 10-3 9-7 6-6 2-10 1h-9l-12-2-5-3-4-7v-7l2-2h6l2 2 2 6 2 1h24l5-3v-8l-1-1-28-2-8-3-6-8-1-3v-11l4-8 5-4z" fill="#6E75BA"/>
<path transform="translate(1022,830)" d="m0 0h7l6 4 2 7v55l-2 6-6 3h-12l-6-3-1-1v-63l3-5 3-2z" fill="#5F2897"/>
<path transform="translate(531,1295)" d="m0 0h47l1 1v10l-5 1h-23l-9-1v18h28v11h-28v15h36l1 1v9h-48z" fill="#6C77BA"/>
<path transform="translate(1382,1295)" d="m0 0h47v11h-36v10l-1 8h28v11l-27 1-1 14h36l1 1v9l-25 1h-18l-4-1-1-64z" fill="#6D77BA"/>
<path transform="translate(1083,1295)" d="m0 0h11l1 1v40l2 11 7 2h14l7-2 1-4 1-47 1-1h11l1 1v34l-1 13-3 8-8 7-5 2-7 1h-11l-9-2-6-4-4-5-3-9z" fill="#6C78BA"/>
<path transform="translate(1019,598)" d="m0 0h8l11 4 3 4-2 4-7 4h-2v5l7-2 9-3 1 1v14l-5 10-8 6-7 2h-8l-9-4-5-5-5-8-1-10 2-8 4-6 6-5z" fill="#5F2998"/>
<path transform="translate(826,514)" d="m0 0 5 3 1 5-5 12-4 8h-2l-2 6-2 4-6 7-41 41v-3l7-8 4-7h2l2-5-2-19-1-2-5 1-5 2 6-7 25-25 5-2 3-1v-2l5-1v-2l5-3z" fill="#7071B9"/>
<path transform="translate(1110,382)" d="m0 0 4 1v65l-6 2-7 1-6-5-5 1-3 3-7 1v-2l6-3 2-2-1-5-7-1-2-4-1-3 7 1v-2l5-2-1-6-8-1-3 3-1 5-5-1v-4l2-2h3l1-5 11-3v-6l-3-3-5-1v-5l5-2 2-5 1-4h-4l-1-3h6l3 3 4-1 4-3zm-8 8-2 3 3 4 5-1 1-4-1-2zm-9 8-3 3 2 4 5-1 2-4-2-2zm11 7-3 2 1 5h5l1-1v-6zm-11 9-2 1v5l1 1h5l2-4-3-3zm10 8-3 2 2 5h5l1-1v-5zm-11 9-1 5 1 1h5l1-5zm11 7-2 2 1 4 4 1 2-2-1-4z" fill="#6F6BB7"/>
<path transform="translate(789,700)" d="m0 0 7 6 11 11 1 5 1 3 3 1 4 5v2l3 1 8 10 4 13-2 3-2 8-5-1-4-3v-2l-10-4-41-41 1-2 5 4v2l4 1v2l6 1 2-3v-7l5-4 2-2-4-6z" fill="#7071B9"/>
<path transform="translate(1567,1295)" d="m0 0h48v10l-1 1-35 1-1 17h27l1 1v8l-2 2h-26v25l-6 1-5-1z" fill="#6E75BA"/>
<path transform="translate(935,692)" d="m0 0 20 1 5 3 1 5 1 20-2 29-3 7-4 1-7-7-8-14-3-11-1-25z" fill="#7172BA"/>
<path transform="translate(876,1295)" d="m0 0h12l5 5 12 18 5-5 7-11 5-7h13l-1 4-10 15-11 16-1 11-1 20h-8l-3-1-1-29-12-18-11-16z" fill="#6E75BA"/>
<path transform="translate(722,1295)" d="m0 0h50l1 1v9l-1 1h-19v42l-1 13h-10l-1-1-1-53-18-1-1-1v-9z" fill="#6D77BA"/>
<path transform="translate(1474,1295)" d="m0 0h11l1 1v54h36l1 1v9l-10 1h-38l-1-1z" fill="#6B79BA"/>
<path transform="translate(435,1295)" d="m0 0h50l1 5v5l-1 1-19 1v53l-1 1h-9l-1-1-1-53-19-1-1-1v-9z" fill="#6D76BA"/>
<path transform="translate(935,574)" d="m0 0 6 1 6 4v46l-1 14v16l-2 5-9 1-1-5v-80z" fill="#21E1C6"/>
<path transform="translate(900,591)" d="m0 0 5 1 1 2 1 17 12 3v15l-1 2-3 1h-8l-1 19-1 1h-13l1-12 1-5 1-10-1-6 1-3-1-7 1-1-2-1-1-8-12 2 1-3z" fill="#5F2A98"/>
<path transform="translate(1107,342)" d="m0 0 5 4 3 12 6 2 1 5-2 5-6 2-14 2-17-1-5-1v-5l-5-5-4-2-1-3-5-1v-3l-3-1 1-3h4l3 6 6 2 1 4 6 3 7-3 1-3-2-6-5-1-2-3 7-1 2 5 3 2h5l2-7h7l2 1zm-4 12-2 2 1 4 5-1v-4z" fill="#7071B9"/>
<path transform="translate(933,381)" d="m0 0 10 2 7 6-1 14 5 2 2 5-2 3h-5l-1 7 4 4 3 1-1 2-5 2v8h6l-2 2 1 4-6 3h-2l-3-6h-4l-2 3-3-3-1-8 1-49zm5 8v8h6l2-4-5-4zm0 17-1 3 2 4h5l2-4-3-3zm0 17v5l2 2 5-1v-5l-1-1z" fill="#706FB8"/>
<path transform="translate(879,603)" d="m0 0 3 1-1 5-4 4-3 11-2 27-4 1-7-4-5-8-1-3v-20l5-9 4-3 10-1z" fill="#26D9C5"/>
<path transform="translate(935,344)" d="m0 0 2 1 1 5 7-1h3l1-5 2 3 1-3h2l2 4 7 3-4 2-1 6-2 2 5 2-4 8 3 3h-9l-20-2-7-3-1-7 3-4 6-1 1-10zm3 9-1 1v5h8v-4l-2-2z" fill="#6F73BA"/>
<path transform="translate(1141,590)" d="m0 0 9 2 21 8v3l-9-2-8-1-3 1-6-1-1 11-1 10-1 2 1 11 1 6v10l11 2v1h-14l-2-5v-16h-12l-1-1v-19h13v-13z" fill="#602B99"/>
<path transform="translate(1596,760)" d="m0 0h7l8 5 3 5-1 8-5 7-3 2h-7l-7-3-4-5-1-2v-6l6-9z" fill="#21E1C6"/>
<path transform="translate(1119,669)" d="m0 0 6 1 2 2v8l-6 3-31 6-9-1 1-4 4-4 3-1 1-2 8-3v-2z" fill="#7070B9"/>
<path transform="translate(933,537)" d="m0 0 11 3 3 5-1 14-2 4-2 1h-11l-4-2-1-2v-20l2-2z" fill="#21E0C5"/>
<path transform="translate(935,692)" d="m0 0h7l4 3v9l-1 3-1 17-4 8h-2l-1-6h-2l-1-25z" fill="#2AD0C3"/>
<path transform="translate(933,354)" d="m0 0 3 2v3l9 1 1 3v8h-19l-4-4 1-7 5-3 3-1z" fill="#24DBC5"/>
<path transform="translate(926,669)" d="m0 0 9 1 9 4 1 7-2 2-4 1h-9l-7-3-2-3 1-5z" fill="#29D3C4"/>
<path transform="translate(1057,617)" d="m0 0 2 3-1 12-5 10-8 9-12 6-10 2-9-1-12-6-5-5-6-7-4-10 1-12h1l1 11 4 10 6 8 11 6 4 1h17l12-6 7-8 4-10 1-11z" fill="#6541A3"/>
<path transform="translate(906,611)" d="m0 0 13 3v15l-7 1-6-2z" fill="#706EB8"/>
<path transform="translate(937,671)" d="m0 0 25 2v1l-7 1v2h2l2 5v4l-8 1-16-2 4-2 5-2-1-7-6-2z" fill="#7172BA"/>
<path transform="translate(931,458)" d="m0 0h6l1 2-3 1-1 3v59l-1 6h-1l-1-6z" fill="#6645A5"/>
<path transform="translate(1057,617)" d="m0 0 2 3-1 12-5 10-8 9-12 6-6 1v-1h-8l-2-2 15-1 12-6 7-8 4-10 1-11z" fill="#6C5FB1"/>
<path transform="translate(899,612)" d="m0 0 2 3 2 5 1 7-4 11-2 1v-21z" fill="#7071B9"/>
<path transform="translate(1092,490)" d="m0 0 6 1 2 2-1 4-2-3h-6l1 4 6 1-2 2-8-1 1 4-2 1-1-3-5-1 4-2 3-2 2-5z" fill="#62369E"/>
<path transform="translate(1093,522)" d="m0 0 5 2 3 5-1 3h-2v2l-4 1-6-3-1-4 4-5zm-1 3-2 2 1 4 1 1h5l2-4-4-3z" fill="#61319B"/>
<path transform="translate(1092,396)" d="m0 0h5l2 3h-8l1 5 7-1-1 3-3 2h-4v-2l-3-1v-5z" fill="#602D9A"/>
<path transform="translate(1092,474)" d="m0 0h5l3 3v5h-3l1-3-1-2h-5l-1 3 2 3 3 2h-5l-3-4 1-5z" fill="#61319B"/>
<path transform="translate(1103,436)" d="m0 0 5 1 1 1v7l-3 2h-5l-2-3 1-5zm0 2-2 2 1 4 4 1 2-2-1-4z" fill="#612F9B"/>
<path transform="translate(1066,389)" d="m0 0 9 1 1 4-4 2-5 1z" fill="#7172BA"/>
<path transform="translate(1008,653)" d="m0 0 9 2 4 1h7l-1 2-8 1-10-3z" fill="#62379E"/>
<path transform="translate(1039,651)" d="m0 0 4 1-10 5-6 1v-1h-8l-2-2 15-1z" fill="#6953AB"/>
<path transform="translate(1093,428)" d="m0 0 5 2 2 4h-2v-2h-6l1 5 3 2h-5l-3-4 1-4z" fill="#61309B"/>
<path transform="translate(1074,440)" d="m0 0h3l1 8-4-2h-6v-4z" fill="#7172BA"/>
<path transform="translate(935,398)" d="m0 0 8 1 1 2-2 3h-7z" fill="#21E1C6"/>
<path transform="translate(1098,513)" d="m0 0 7 1-2 1v2h-2l1 5 4 3h-5l-2-3v-6l-1 1h-5z" fill="#63389E"/>
<path transform="translate(1092,412)" d="m0 0 5 1 1 2h-7l2 6 3 2h-6l-2-3 1-5z" fill="#612F9B"/>
<path transform="translate(1104,351)" d="m0 0 4 1 1 1v6l-3-4-4 1 1 5-4-1v-5z" fill="#602C99"/>
<path transform="translate(1073,484)" d="m0 0 3 1v5l-4 1h-5v-4l6-2z" fill="#7172BA"/>
<path transform="translate(941,340)" d="m0 0 4 1-3 1 1 2-3 2v3l4 2h-6l-2-6 1-3z" fill="#6644A4"/>
<path transform="translate(936,526)" d="m0 0h6l2 3-5 3h-4z" fill="#21E1C6"/>
<path transform="translate(994,643)" d="m0 0 4 1 5 5 6 3-2 3-9-6z" fill="#6543A4"/>
<path transform="translate(1102,403)" d="m0 0 6 1-6 3v4l5 2v1l-7-1-1-1 1-7z" fill="#602D99"/>
<path transform="translate(1091,575)" d="m0 0h10l-1 2-6 1h-10l2-2z" fill="#62369E"/>
<path transform="translate(1069,469)" d="m0 0h7v4l-8 1z" fill="#7172BA"/>
<path transform="translate(936,476)" d="m0 0h5l1 5-6 1-1-4z" fill="#21E1C6"/>
<path transform="translate(931,458)" d="m0 0h6l1 2-3 1-3 7h-1z" fill="#6644A4"/>
<path transform="translate(1057,617)" d="m0 0 2 3-1 12-2-2v-11z" fill="#7172BA"/>
<path transform="translate(1089,526)" d="m0 0 2 4 6 2-4 2-5-2-1-4z" fill="#633AA0"/>
</svg>
